<?xml version="1.0" encoding="iso-8859-1"?>
<!-- Generator: Adobe Illustrator 16.0.0, SVG Export Plug-In . SVG Version: 6.00 Build 0)  -->
<!DOCTYPE svg PUBLIC "-//W3C//DTD SVG 1.1//EN" "http://www.w3.org/Graphics/SVG/1.1/DTD/svg11.dtd">
<svg version="1.1" id="Capa_1" xmlns="http://www.w3.org/2000/svg" xmlns:xlink="http://www.w3.org/1999/xlink" x="0px" y="0px"
	 width="386.864px" height="386.865px" viewBox="0 0 386.864 386.865" style="enable-background:new 0 0 386.864 386.865;"
	 xml:space="preserve">
<g>
	<g>
		<path d="M298.915,269.268c-0.008,0.008-0.024,0.024-0.032,0.04l-68.138-34.255c3.049-13.577,0.568-28.137-7.498-40.079
			l12.511-10.029c14.339,8.875,33.35,7.176,45.793-5.268c14.527-14.511,14.527-38.046,0-52.563
			c-14.515-14.525-38.051-14.525-52.577,0c-12.748,12.75-14.283,32.428-4.645,46.883l-11.778,9.428
			c-8.087-6.436-17.654-10.104-27.437-10.977l-6.727-57.777c5.324-2.473,10.329-5.849,14.719-10.245
			c20.113-20.113,20.113-52.738,0-72.843c-20.113-20.113-52.722-20.113-72.843,0.008c-20.113,20.113-20.113,52.722,0,72.835
			c8.632,8.636,19.577,13.542,30.85,14.757l11.926,56.156c-6.893,2.486-13.385,6.444-18.917,11.97
			c-2.599,2.599-4.845,5.41-6.776,8.37l-37.754-18.953c0.307-5.446-1.545-10.997-5.715-15.174c-7.754-7.749-20.324-7.749-28.078,0
			c-7.758,7.758-7.758,20.326,0,28.082c7.334,7.332,18.923,7.652,26.729,1.114l38.396,19.282
			c-2.709,9.874-2.419,20.386,0.863,30.128l-51.499,36.019c-20.031-13.541-47.47-11.461-65.203,6.271
			c-20.113,20.113-20.113,52.726,0,72.835s52.722,20.109,72.843-0.008c13.98-13.982,18.212-34.007,12.756-51.676l43.46-43.457
			c7.859,7.859,17.633,12.6,27.808,14.323l2.046,24.93c-4.089,1.651-7.927,4.12-11.239,7.446
			c-13.188,13.176-13.188,34.544-0.012,47.729c13.19,13.18,34.562,13.18,47.745,0c13.176-13.185,13.176-34.553-0.016-47.729
			c-5.827-5.835-13.271-8.941-20.903-9.614l-1.843-22.554c10.702-1.495,21.027-6.304,29.262-14.535
			c0.89-0.877,1.671-1.811,2.477-2.745l64.728,42.663c-1.635,14.988,3.274,30.549,14.748,42.034
			c20.101,20.109,52.729,20.109,72.839,0c20.109-20.117,20.109-52.729,0-72.839C351.652,249.159,319.032,249.159,298.915,269.268z"
			/>
	</g>
</g>
<g>
</g>
<g>
</g>
<g>
</g>
<g>
</g>
<g>
</g>
<g>
</g>
<g>
</g>
<g>
</g>
<g>
</g>
<g>
</g>
<g>
</g>
<g>
</g>
<g>
</g>
<g>
</g>
<g>
</g>
</svg>
