<?xml version="1.0" encoding="iso-8859-1"?>
<!-- Generator: Adobe Illustrator 16.0.0, SVG Export Plug-In . SVG Version: 6.00 Build 0)  -->
<!DOCTYPE svg PUBLIC "-//W3C//DTD SVG 1.1//EN" "http://www.w3.org/Graphics/SVG/1.1/DTD/svg11.dtd">
<svg version="1.1" id="Capa_1" xmlns="http://www.w3.org/2000/svg" xmlns:xlink="http://www.w3.org/1999/xlink" x="0px" y="0px"
	 width="314.674px" height="314.674px" viewBox="0 0 314.674 314.674" style="enable-background:new 0 0 314.674 314.674;"
	 xml:space="preserve">
<g>
	<g>
		<path d="M170.896,84.672c27.568-31.141,17.083-65.788,6.929-80.556c-2.968-4.324-8.906-5.417-13.223-2.439
			c-4.321,2.973-5.424,8.901-2.444,13.22c0.842,1.232,19.09,28.532-4.82,56.385c-23.579-27.6-5.673-55.105-4.798-56.416
			c2.946-4.329,1.844-10.227-2.473-13.189c-4.321-2.977-10.247-1.879-13.228,2.439c-10.144,14.763-20.643,49.42,6.929,80.556
			c-20.832,20.313-40.493,44.506-40.467,75.922c0.016,25.921,13.321,52.589,40.501,81.136
			c-34.368,32.415-25.924,64.628-25.544,65.995c1.167,4.194,4.958,6.902,9.111,6.902c0.815,0,1.644-0.108,2.476-0.331
			c5.028-1.331,8.039-6.524,6.765-11.573c-0.233-0.938-5.486-23.312,20.729-47.659c26.219,24.353,20.963,46.717,20.756,47.545
			c-1.408,5.06,1.543,10.3,6.598,11.713c0.869,0.249,1.719,0.353,2.568,0.353c4.158,0,7.979-2.75,9.154-6.954
			c0.378-1.372,8.834-33.586-25.533-65.995c27.175-28.553,40.478-55.215,40.493-81.146
			C211.384,129.188,191.722,104.985,170.896,84.672z M157.327,97.99c8.606,8.352,16.702,17.108,22.963,26.507h-45.922
			C140.62,115.099,148.721,106.342,157.327,97.99z M126.084,140.404h62.475c1.802,4.815,3.028,9.817,3.521,15.021h-69.511
			C123.058,150.222,124.288,145.22,126.084,140.404z M157.327,228.329c-8.458-8.928-15.355-17.627-20.759-26.067h41.516
			C172.682,210.702,165.786,219.392,157.327,228.329z M186.549,186.354h-58.445c-2.167-5.121-3.684-10.123-4.616-15.021h67.676
			C190.231,176.231,188.719,181.233,186.549,186.354z"/>
	</g>
</g>
<g>
</g>
<g>
</g>
<g>
</g>
<g>
</g>
<g>
</g>
<g>
</g>
<g>
</g>
<g>
</g>
<g>
</g>
<g>
</g>
<g>
</g>
<g>
</g>
<g>
</g>
<g>
</g>
<g>
</g>
</svg>
