<?xml version="1.0" encoding="iso-8859-1"?>
<!-- Generator: Adobe Illustrator 16.0.0, SVG Export Plug-In . SVG Version: 6.00 Build 0)  -->
<!DOCTYPE svg PUBLIC "-//W3C//DTD SVG 1.1//EN" "http://www.w3.org/Graphics/SVG/1.1/DTD/svg11.dtd">
<svg version="1.1" id="Capa_1" xmlns="http://www.w3.org/2000/svg" xmlns:xlink="http://www.w3.org/1999/xlink" x="0px" y="0px"
	 width="369.621px" height="369.621px" viewBox="0 0 369.621 369.621" style="enable-background:new 0 0 369.621 369.621;"
	 xml:space="preserve">
<g>
	<g>
		<polygon points="181.188,259.949 204.278,259.949 204.278,230.956 233.865,230.956 233.865,207.861 204.278,207.861 
			204.278,178.865 181.188,178.865 181.188,207.861 152.783,207.861 152.783,230.956 181.188,230.956 		"/>
		<path d="M31.402,351.884h306.816c17.34,0,31.402-14.062,31.402-31.402v-202.15c0-17.342-14.062-31.402-31.402-31.402h-68.223
			c0.733-3.318,1.166-6.764,1.166-10.315V64.84c0-25.978-21.131-47.103-47.103-47.103h-78.506
			c-25.976,0-47.101,21.125-47.101,47.103v11.774c0,3.551,0.433,6.997,1.168,10.315H31.402C14.06,86.929,0,100.989,0,118.331v202.15
			C0,337.822,14.06,351.884,31.402,351.884z M129.854,64.84c0-8.66,7.049-15.701,15.699-15.701h78.506
			c8.647,0,15.701,7.041,15.701,15.701v11.774c0,3.963-1.52,7.552-3.964,10.315H133.818c-2.442-2.763-3.963-6.352-3.963-10.315
			V64.84z M155.502,140.925c15.088,0,28.583,6.656,37.822,17.152c9.251-10.496,22.732-17.152,37.816-17.152
			c27.867,0,50.445,22.576,50.445,50.441c0,15.409-6.945,29.179-17.829,38.439h0.028l-69.409,68.074l-71.519-68.074h0.024
			c-10.886-9.261-17.829-23.039-17.829-38.439C105.061,163.501,127.639,140.925,155.502,140.925z"/>
	</g>
</g>
<g>
</g>
<g>
</g>
<g>
</g>
<g>
</g>
<g>
</g>
<g>
</g>
<g>
</g>
<g>
</g>
<g>
</g>
<g>
</g>
<g>
</g>
<g>
</g>
<g>
</g>
<g>
</g>
<g>
</g>
</svg>
