<?xml version="1.0" encoding="iso-8859-1"?>
<!-- Generator: Adobe Illustrator 16.0.0, SVG Export Plug-In . SVG Version: 6.00 Build 0)  -->
<!DOCTYPE svg PUBLIC "-//W3C//DTD SVG 1.1//EN" "http://www.w3.org/Graphics/SVG/1.1/DTD/svg11.dtd">
<svg version="1.1" id="Capa_1" xmlns="http://www.w3.org/2000/svg" xmlns:xlink="http://www.w3.org/1999/xlink" x="0px" y="0px"
	 width="429.041px" height="429.041px" viewBox="0 0 429.041 429.041" style="enable-background:new 0 0 429.041 429.041;"
	 xml:space="preserve">
<g>
	<g>
		<path d="M341.669,12.211L92.333,300.255c-8.844,10.211-10.78,24.033-6.268,35.807l-56.671,65.481
			c-6.005,6.937-5.25,17.44,1.687,23.436c6.939,6.019,17.444,5.258,23.447-1.68l56.673-65.469
			c12.303,2.772,25.704-1.122,34.542-11.333L395.08,58.452c12.771-14.75,11.165-37.063-3.587-49.827
			C376.75-4.155,354.433-2.545,341.669,12.211z M356.32,58.782l-19.043,22.003l10.992,9.518c1.743,1.499,1.924,4.12,0.429,5.861
			c-1.503,1.737-4.124,1.923-5.863,0.425l-11-9.522l-18.134,20.953l10.996,9.514c1.739,1.507,1.924,4.13,0.43,5.865
			c-1.503,1.745-4.124,1.925-5.867,0.427l-11.001-9.526l-18.138,20.951l10.993,9.526c1.739,1.499,1.923,4.129,0.429,5.865
			c-1.503,1.733-4.124,1.922-5.863,0.423l-11-9.521l-18.134,20.943l10.996,9.521c1.739,1.507,1.924,4.129,0.429,5.867
			c-1.511,1.743-4.127,1.924-5.866,0.425l-11.001-9.525l-18.129,20.953l10.992,9.524c1.73,1.499,1.924,4.129,0.421,5.867
			c-1.495,1.731-4.116,1.919-5.855,0.421l-11.004-9.522l-18.134,20.943l10.996,9.521c1.735,1.503,1.928,4.132,0.425,5.866
			c-1.503,1.748-4.119,1.924-5.866,0.43l-10.993-9.522l-18.144,20.951l11.003,9.521c1.731,1.495,1.919,4.128,0.42,5.867
			c-1.499,1.731-4.12,1.915-5.865,0.421l-10.996-9.521l-18.136,20.942l10.996,9.521c1.737,1.503,1.926,4.136,0.427,5.867
			c-1.499,1.731-4.122,1.924-5.865,0.421l-10.999-9.521l-18.133,20.95l10.997,9.521c1.737,1.503,1.925,4.128,0.427,5.859
			c-1.499,1.731-4.13,1.932-5.865,0.429l-10.998-9.521l-18.134,20.946l10.996,9.522c1.737,1.502,1.924,4.123,0.425,5.854
			c-1.509,1.747-4.124,1.932-5.865,0.437l-10.997-9.521l-3.4,3.928c-2.254,2.597-6.188,2.873-8.792,0.629
			c-2.601-2.256-2.891-6.188-0.637-8.797l240.045-277.31c2.256-2.601,6.195-2.883,8.792-0.637
			C358.292,52.242,358.572,56.183,356.32,58.782z"/>
	</g>
</g>
<g>
</g>
<g>
</g>
<g>
</g>
<g>
</g>
<g>
</g>
<g>
</g>
<g>
</g>
<g>
</g>
<g>
</g>
<g>
</g>
<g>
</g>
<g>
</g>
<g>
</g>
<g>
</g>
<g>
</g>
</svg>
